<svg  viewBox="0 0 32 44" fill="none" xmlns="http://www.w3.org/2000/svg">
<path d="M0 16C0 7.16344 7.16344 0 16 0C24.8366 0 32 7.16344 32 16C32 24.8366 24.8366 32 16 32C7.16344 32 0 24.8366 0 16Z" fill="#CFCFD2"/>
<path d="M3.20001 16.0001C3.20001 8.93083 8.93077 3.20007 16 3.20007C23.0693 3.20007 28.8 8.93083 28.8 16.0001C28.8 23.0693 23.0693 28.8001 16 28.8001C8.93077 28.8001 3.20001 23.0693 3.20001 16.0001Z" fill="white"/>
<path d="M14.5 32H17.5V42.5C17.5 43.3284 16.8284 44 16 44V44C15.1716 44 14.5 43.3284 14.5 42.5V32Z" fill="#434347"/>
</svg>
