<svg width="14" height="14" viewBox="0 0 14 14" fill="none" xmlns="http://www.w3.org/2000/svg">
<rect x="0.5" y="0.5" width="13" height="13" rx="6.5" fill="#FF9E2C"/>
<rect x="0.5" y="0.5" width="13" height="13" rx="6.5" stroke="white"/>
<path d="M6.475 5.2225V8.7775C6.475 8.92551 6.44294 8.98005 6.41769 9.00382C6.38959 9.03029 6.32397 9.0625 6.16 9.0625H5.2525C5.08853 9.0625 5.02291 9.03029 4.99481 9.00382C4.96956 8.98005 4.9375 8.92551 4.9375 8.7775V5.2225C4.9375 5.07449 4.96956 5.01995 4.99481 4.99618C5.02291 4.96971 5.08853 4.9375 5.2525 4.9375H6.16C6.32397 4.9375 6.38959 4.96971 6.41769 4.99618C6.44294 5.01995 6.475 5.07449 6.475 5.2225Z" fill="white" stroke="white" stroke-width="0.375"/>
<path d="M9.06252 5.2225V8.7775C9.06252 8.92551 9.03046 8.98005 9.00522 9.00382C8.97711 9.03029 8.9115 9.0625 8.74752 9.0625H7.84002C7.67605 9.0625 7.61043 9.03029 7.58233 9.00382C7.55709 8.98005 7.52502 8.92551 7.52502 8.7775V5.2225C7.52502 5.07528 7.55736 5.02049 7.583 4.99643C7.61164 4.96956 7.67766 4.9375 7.84002 4.9375H8.74752C8.9115 4.9375 8.97711 4.96971 9.00522 4.99618C9.03046 5.01995 9.06252 5.07449 9.06252 5.2225Z" fill="white" stroke="white" stroke-width="0.375"/>
</svg>
